<svg width="110" height="110" viewBox="0 0 110 110" fill="none" xmlns="http://www.w3.org/2000/svg">
<path d="M110 55C110 85.3757 85.3757 110 55 110C24.6243 110 0 85.3757 0 55C0 24.6243 24.6243 0 55 0C85.3757 0 110 24.6243 110 55Z" fill="#D9D9D9"/>
<path d="M110 55C110 85.3757 85.3757 110 55 110C24.6243 110 0 85.3757 0 55C0 24.6243 24.6243 0 55 0C85.3757 0 110 24.6243 110 55Z" fill="url(#paint0_linear_65_36)"/>
<path fill-rule="evenodd" clip-rule="evenodd" d="M62.1562 27.2917C62.1562 27.0983 62.0783 26.9128 61.9396 26.7761C61.8009 26.6393 61.6128 26.5625 61.4167 26.5625H40.7083C38.5507 26.5625 36.4814 27.4075 34.9557 28.9117C33.43 30.4159 32.5729 32.4561 32.5729 34.5833V75.4167C32.5729 77.5439 33.43 79.5841 34.9557 81.0883C36.4814 82.5925 38.5507 83.4375 40.7083 83.4375H70.2917C72.4493 83.4375 74.5186 82.5925 76.0443 81.0883C77.57 79.5841 78.4271 77.5439 78.4271 75.4167V46.6788C78.4271 46.4854 78.3492 46.2999 78.2105 46.1632C78.0718 46.0264 77.8836 45.9496 77.6875 45.9496H64.375C63.7866 45.9496 63.2222 45.7191 62.8061 45.3089C62.39 44.8986 62.1562 44.3422 62.1562 43.7621V27.2917ZM64.375 55.7292C64.9634 55.7292 65.5278 55.9596 65.9439 56.3699C66.36 56.7801 66.5938 57.3365 66.5938 57.9167C66.5938 58.4968 66.36 59.0532 65.9439 59.4635C65.5278 59.8737 64.9634 60.1042 64.375 60.1042H46.625C46.0366 60.1042 45.4722 59.8737 45.0561 59.4635C44.64 59.0532 44.4062 58.4968 44.4062 57.9167C44.4062 57.3365 44.64 56.7801 45.0561 56.3699C45.4722 55.9596 46.0366 55.7292 46.625 55.7292H64.375ZM64.375 67.3958C64.9634 67.3958 65.5278 67.6263 65.9439 68.0365C66.36 68.4468 66.5938 69.0032 66.5938 69.5833C66.5938 70.1635 66.36 70.7199 65.9439 71.1301C65.5278 71.5404 64.9634 71.7708 64.375 71.7708H46.625C46.0366 71.7708 45.4722 71.5404 45.0561 71.1301C44.64 70.7199 44.4062 70.1635 44.4062 69.5833C44.4062 69.0032 44.64 68.4468 45.0561 68.0365C45.4722 67.6263 46.0366 67.3958 46.625 67.3958H64.375Z" fill="black"/>
<path fill-rule="evenodd" clip-rule="evenodd" d="M62.1562 27.2917C62.1562 27.0983 62.0783 26.9128 61.9396 26.7761C61.8009 26.6393 61.6128 26.5625 61.4167 26.5625H40.7083C38.5507 26.5625 36.4814 27.4075 34.9557 28.9117C33.43 30.4159 32.5729 32.4561 32.5729 34.5833V75.4167C32.5729 77.5439 33.43 79.5841 34.9557 81.0883C36.4814 82.5925 38.5507 83.4375 40.7083 83.4375H70.2917C72.4493 83.4375 74.5186 82.5925 76.0443 81.0883C77.57 79.5841 78.4271 77.5439 78.4271 75.4167V46.6788C78.4271 46.4854 78.3492 46.2999 78.2105 46.1632C78.0718 46.0264 77.8836 45.9496 77.6875 45.9496H64.375C63.7866 45.9496 63.2222 45.7191 62.8061 45.3089C62.39 44.8986 62.1562 44.3422 62.1562 43.7621V27.2917ZM64.375 55.7292C64.9634 55.7292 65.5278 55.9596 65.9439 56.3699C66.36 56.7801 66.5938 57.3365 66.5938 57.9167C66.5938 58.4968 66.36 59.0532 65.9439 59.4635C65.5278 59.8737 64.9634 60.1042 64.375 60.1042H46.625C46.0366 60.1042 45.4722 59.8737 45.0561 59.4635C44.64 59.0532 44.4062 58.4968 44.4062 57.9167C44.4062 57.3365 44.64 56.7801 45.0561 56.3699C45.4722 55.9596 46.0366 55.7292 46.625 55.7292H64.375ZM64.375 67.3958C64.9634 67.3958 65.5278 67.6263 65.9439 68.0365C66.36 68.4468 66.5938 69.0032 66.5938 69.5833C66.5938 70.1635 66.36 70.7199 65.9439 71.1301C65.5278 71.5404 64.9634 71.7708 64.375 71.7708H46.625C46.0366 71.7708 45.4722 71.5404 45.0561 71.1301C44.64 70.7199 44.4062 70.1635 44.4062 69.5833C44.4062 69.0032 44.64 68.4468 45.0561 68.0365C45.4722 67.6263 46.0366 67.3958 46.625 67.3958H64.375Z" fill="white"/>
<path d="M66.5938 28.2367C66.5938 27.7 67.1647 27.3587 67.5878 27.6942C67.9467 27.98 68.2652 28.3125 68.5433 28.6917L77.4567 40.9329C77.6579 41.2129 77.439 41.5746 77.0899 41.5746H67.3333C67.1372 41.5746 66.9491 41.4978 66.8104 41.361C66.6717 41.2243 66.5938 41.0388 66.5938 40.8454V28.2367Z" fill="black"/>
<path d="M66.5938 28.2367C66.5938 27.7 67.1647 27.3587 67.5878 27.6942C67.9467 27.98 68.2652 28.3125 68.5433 28.6917L77.4567 40.9329C77.6579 41.2129 77.439 41.5746 77.0899 41.5746H67.3333C67.1372 41.5746 66.9491 41.4978 66.8104 41.361C66.6717 41.2243 66.5938 41.0388 66.5938 40.8454V28.2367Z" fill="white"/>
<defs>
<linearGradient id="paint0_linear_65_36" x1="21.2175" y1="43.0039" x2="111.52" y2="47.7508" gradientUnits="userSpaceOnUse">
<stop stop-color="#FF865B"/>
<stop offset="1" stop-color="#FD6F9C"/>
</linearGradient>
</defs>
</svg>
